<svg width="40" height="40" xmlns="http://www.w3.org/2000/svg"><g fill="none" fill-rule="evenodd"><path d="M6.275 20.77C2.81 20.77 0 23.566 0 27.017c0 3.45 2.81 6.248 6.275 6.248v.054c0 3.451 2.81 6.248 6.276 6.248 3.466 0 6.275-2.797 6.275-6.248V20.77H6.276z" fill="#209869"/><path d="M6.275 18.8C2.81 18.8 0 16.001 0 12.55 0 9.1 2.81 6.303 6.275 6.303v-.054C6.275 2.798 9.085 0 12.551 0c3.466 0 6.275 2.797 6.275 6.248V18.8H6.276z" fill="#8FCBB4"/><path d="M33.32 18.8c3.466 0 6.276-2.798 6.276-6.25 0-3.45-2.81-6.248-6.276-6.248v-.054C33.32 2.798 30.51 0 27.045 0c-3.466 0-6.276 2.797-6.276 6.248V18.8H33.32z" fill="#209869"/><path d="M33.32 20.77c3.466 0 6.276 2.797 6.276 6.248 0 3.45-2.81 6.248-6.276 6.248v.054c0 3.451-2.81 6.248-6.275 6.248-3.466 0-6.276-2.797-6.276-6.248V20.77H33.32z" fill="#8FCBB4"/></g></svg>